<svg width="18" height="17" viewBox="0 0 18 17" fill="none" xmlns="http://www.w3.org/2000/svg">
<path d="M16.25 4.5H13.8725L12.5 3H8V4.5H11.84L13.2125 6H16.25V15H4.25V8.25H2.75V15C2.75 15.825 3.425 16.5 4.25 16.5H16.25C17.075 16.5 17.75 15.825 17.75 15V6C17.75 5.175 17.075 4.5 16.25 4.5ZM6.5 10.5C6.5 12.57 8.18 14.25 10.25 14.25C12.32 14.25 14 12.57 14 10.5C14 8.43 12.32 6.75 10.25 6.75C8.18 6.75 6.5 8.43 6.5 10.5ZM10.25 8.25C11.4875 8.25 12.5 9.2625 12.5 10.5C12.5 11.7375 11.4875 12.75 10.25 12.75C9.0125 12.75 8 11.7375 8 10.5C8 9.2625 9.0125 8.25 10.25 8.25ZM4.25 4.5H6.5V3H4.25V0.75H2.75V3H0.5V4.5H2.75V6.75H4.25V4.5Z" fill="white"/>
</svg>
