<svg width="27" height="26" viewBox="0 0 27 26" fill="none" xmlns="http://www.w3.org/2000/svg">
<g id="tune_black_24dp (1) 1" clip-path="url(#clip0_233_8731)">
<path id="Vector" d="M3.75 19.5C3.75 20.0958 4.2375 20.5833 4.83333 20.5833H10.25V18.4167H4.83333C4.2375 18.4167 3.75 18.9042 3.75 19.5ZM3.75 6.5C3.75 7.09583 4.2375 7.58333 4.83333 7.58333H14.5833V5.41667H4.83333C4.2375 5.41667 3.75 5.90417 3.75 6.5ZM14.5833 21.6667V20.5833H22.1667C22.7625 20.5833 23.25 20.0958 23.25 19.5C23.25 18.9042 22.7625 18.4167 22.1667 18.4167H14.5833V17.3333C14.5833 16.7375 14.0958 16.25 13.5 16.25C12.9042 16.25 12.4167 16.7375 12.4167 17.3333V21.6667C12.4167 22.2625 12.9042 22.75 13.5 22.75C14.0958 22.75 14.5833 22.2625 14.5833 21.6667ZM8.08333 10.8333V11.9167H4.83333C4.2375 11.9167 3.75 12.4042 3.75 13C3.75 13.5958 4.2375 14.0833 4.83333 14.0833H8.08333V15.1667C8.08333 15.7625 8.57083 16.25 9.16667 16.25C9.7625 16.25 10.25 15.7625 10.25 15.1667V10.8333C10.25 10.2375 9.7625 9.75 9.16667 9.75C8.57083 9.75 8.08333 10.2375 8.08333 10.8333ZM23.25 13C23.25 12.4042 22.7625 11.9167 22.1667 11.9167H12.4167V14.0833H22.1667C22.7625 14.0833 23.25 13.5958 23.25 13ZM17.8333 9.75C18.4292 9.75 18.9167 9.2625 18.9167 8.66667V7.58333H22.1667C22.7625 7.58333 23.25 7.09583 23.25 6.5C23.25 5.90417 22.7625 5.41667 22.1667 5.41667H18.9167V4.33333C18.9167 3.7375 18.4292 3.25 17.8333 3.25C17.2375 3.25 16.75 3.7375 16.75 4.33333V8.66667C16.75 9.2625 17.2375 9.75 17.8333 9.75Z" fill="#001F3F" fill-opacity="0.7"/>
</g>
<defs>
<clipPath id="clip0_233_8731">
<rect width="26" height="26" fill="white" transform="translate(0.5)"/>
</clipPath>
</defs>
</svg>
