<svg width="18" height="18" viewBox="0 0 18 18" fill="none" xmlns="http://www.w3.org/2000/svg">
<g id="lock_FILL0_wght400_GRAD0_opsz24 1">
<path id="Vector" d="M4.5 16.4998C4.0875 16.4998 3.73438 16.3529 3.44063 16.0591C3.14687 15.7654 3 15.4123 3 14.9998V7.49976C3 7.08726 3.14687 6.73413 3.44063 6.44038C3.73438 6.14663 4.0875 5.99976 4.5 5.99976H5.25V4.49976C5.25 3.46226 5.61563 2.57788 6.34688 1.84663C7.07812 1.11538 7.9625 0.749756 9 0.749756C10.0375 0.749756 10.9219 1.11538 11.6531 1.84663C12.3844 2.57788 12.75 3.46226 12.75 4.49976V5.99976H13.5C13.9125 5.99976 14.2656 6.14663 14.5594 6.44038C14.8531 6.73413 15 7.08726 15 7.49976V14.9998C15 15.4123 14.8531 15.7654 14.5594 16.0591C14.2656 16.3529 13.9125 16.4998 13.5 16.4998H4.5ZM4.5 14.9998H13.5V7.49976H4.5V14.9998ZM9 12.7498C9.4125 12.7498 9.76563 12.6029 10.0594 12.3091C10.3531 12.0154 10.5 11.6623 10.5 11.2498C10.5 10.8373 10.3531 10.4841 10.0594 10.1904C9.76563 9.89663 9.4125 9.74976 9 9.74976C8.5875 9.74976 8.23438 9.89663 7.94063 10.1904C7.64688 10.4841 7.5 10.8373 7.5 11.2498C7.5 11.6623 7.64688 12.0154 7.94063 12.3091C8.23438 12.6029 8.5875 12.7498 9 12.7498ZM6.75 5.99976H11.25V4.49976C11.25 3.87476 11.0312 3.34351 10.5938 2.90601C10.1563 2.46851 9.625 2.24976 9 2.24976C8.375 2.24976 7.84375 2.46851 7.40625 2.90601C6.96875 3.34351 6.75 3.87476 6.75 4.49976V5.99976Z" fill="#316BD6"/>
</g>
</svg>
