<svg width="18" height="18" viewBox="0 0 18 18" fill="none" xmlns="http://www.w3.org/2000/svg">
<g clip-path="url(#clip0_291_1427)">
<path d="M15 3H3C2.175 3 1.5075 3.675 1.5075 4.5L1.5 13.5C1.5 14.325 2.175 15 3 15H15C15.825 15 16.5 14.325 16.5 13.5V4.5C16.5 3.675 15.825 3 15 3ZM14.25 13.5H3.75C3.3375 13.5 3 13.1625 3 12.75V6L8.205 9.255C8.6925 9.5625 9.3075 9.5625 9.795 9.255L15 6V12.75C15 13.1625 14.6625 13.5 14.25 13.5ZM9 8.25L3 4.5H15L9 8.25Z" fill="#8B5CF6"/>
</g>
<defs>
<clipPath id="clip0_291_1427">
<rect width="18" height="18" fill="white"/>
</clipPath>
</defs>
</svg>
