<svg width="18" height="18" viewBox="0 0 18 18" fill="none" xmlns="http://www.w3.org/2000/svg">
<g id="payments_FILL0_wght400_GRAD0_opsz24 1">
<path id="Vector" d="M10.5 9.75C9.875 9.75 9.34375 9.53125 8.90625 9.09375C8.46875 8.65625 8.25 8.125 8.25 7.5C8.25 6.875 8.46875 6.34375 8.90625 5.90625C9.34375 5.46875 9.875 5.25 10.5 5.25C11.125 5.25 11.6562 5.46875 12.0938 5.90625C12.5313 6.34375 12.75 6.875 12.75 7.5C12.75 8.125 12.5313 8.65625 12.0938 9.09375C11.6562 9.53125 11.125 9.75 10.5 9.75ZM5.25 12C4.8375 12 4.48438 11.8531 4.19063 11.5594C3.89688 11.2656 3.75 10.9125 3.75 10.5V4.5C3.75 4.0875 3.89688 3.73438 4.19063 3.44063C4.48438 3.14687 4.8375 3 5.25 3H15.75C16.1625 3 16.5156 3.14687 16.8094 3.44063C17.1031 3.73438 17.25 4.0875 17.25 4.5V10.5C17.25 10.9125 17.1031 11.2656 16.8094 11.5594C16.5156 11.8531 16.1625 12 15.75 12H5.25ZM6.75 10.5H14.25C14.25 10.0875 14.3969 9.73438 14.6906 9.44063C14.9844 9.14688 15.3375 9 15.75 9V6C15.3375 6 14.9844 5.85313 14.6906 5.55938C14.3969 5.26562 14.25 4.9125 14.25 4.5H6.75C6.75 4.9125 6.60313 5.26562 6.30938 5.55938C6.01562 5.85313 5.6625 6 5.25 6V9C5.6625 9 6.01562 9.14688 6.30938 9.44063C6.60313 9.73438 6.75 10.0875 6.75 10.5ZM15 15H2.25C1.8375 15 1.48438 14.8531 1.19063 14.5594C0.896875 14.2656 0.75 13.9125 0.75 13.5V5.25H2.25V13.5H15V15Z" fill="#316BD6"/>
</g>
</svg>
