<svg width="24" height="24" viewBox="0 0 24 24" fill="none" xmlns="http://www.w3.org/2000/svg">
<path fill-rule="evenodd" clip-rule="evenodd" d="M4.80318 0.850665C4.81312 0.856131 4.82303 0.861584 4.83291 0.86702L20.933 9.72206L20.9706 9.74272C21.3538 9.95346 21.6997 10.1437 21.9631 10.3217C22.2283 10.5009 22.5588 10.7618 22.7453 11.1716C22.9849 11.698 22.9849 12.3024 22.7453 12.8288C22.5588 13.2386 22.2283 13.4996 21.9631 13.6787C21.6997 13.8568 21.3538 14.047 20.9706 14.2577L20.933 14.2784L4.83291 23.1334L4.8032 23.1498C4.61756 23.2519 4.42429 23.3583 4.25874 23.4311C4.11436 23.4946 3.77117 23.6395 3.36861 23.5565C2.93001 23.4659 2.56119 23.171 2.37639 22.7631C2.20676 22.3887 2.27264 22.022 2.30283 21.8672C2.33745 21.6897 2.39868 21.4777 2.45749 21.2742L2.4669 21.2416L3.4964 17.6753C3.51042 17.6267 3.52422 17.5788 3.53784 17.5316C3.84896 16.4523 4.06408 15.7061 4.47628 15.0757C4.83996 14.5195 5.31085 14.0414 5.86144 13.6693C6.4855 13.2476 7.22838 13.0211 8.30277 12.6936C8.3498 12.6793 8.39748 12.6647 8.4458 12.65L10.5746 12.0002L8.4458 11.3505C8.39748 11.3357 8.34981 11.3212 8.30277 11.3068C7.22838 10.9793 6.4855 10.7529 5.86144 10.3311C5.31085 9.95906 4.83996 9.48094 4.47628 8.92475C4.06408 8.29435 3.84896 7.54811 3.53784 6.46886C3.52422 6.42161 3.51041 6.37373 3.4964 6.32518L2.4669 2.75887C2.46377 2.74803 2.46064 2.73716 2.45749 2.72627C2.39868 2.52272 2.33745 2.31078 2.30283 2.13328C2.27264 1.97845 2.20676 1.6118 2.37639 1.23737C2.56119 0.829437 2.93001 0.534534 3.36861 0.443999C3.77117 0.360902 4.11436 0.505827 4.25874 0.569341C4.42428 0.642162 4.61755 0.748516 4.80318 0.850665ZM4.62897 3.0374L5.41794 5.77049C5.78705 7.04913 5.92312 7.48294 6.15021 7.83023C6.36841 8.16394 6.65095 8.45081 6.9813 8.67407C7.3251 8.90641 7.75679 9.04906 9.02967 9.43758L14.292 11.0438C14.7127 11.1722 15.0001 11.5604 15.0001 12.0002C15.0001 12.4401 14.7127 12.8283 14.292 12.9567L9.02967 14.5629C7.75679 14.9514 7.3251 15.094 6.9813 15.3264C6.65095 15.5496 6.36841 15.8365 6.15021 16.1702C5.92312 16.5175 5.78705 16.9513 5.41794 18.23L4.62897 20.9631L19.9692 12.526C20.4021 12.2879 20.6654 12.1419 20.8433 12.0216C20.8545 12.0141 20.8649 12.0069 20.8744 12.0002C20.8649 11.9935 20.8545 11.9864 20.8433 11.9788C20.6654 11.8586 20.4021 11.7126 19.9692 11.4745L4.62897 3.0374Z" fill="#ffffff"/>
</svg>
