<svg width="24" height="24" viewBox="0 0 24 24" fill="none" xmlns="http://www.w3.org/2000/svg">
<path d="M7.22061 4.15011C7.16855 3.54713 7.56232 2.98387 8.15055 2.81981L10.9238 2.04635C11.5121 1.88229 12.1236 2.16516 12.3682 2.71445L12.9465 4.01258C13.1163 4.39134 13.469 4.64842 13.8745 4.74497C13.9645 4.76542 14.0544 4.78935 14.1445 4.81435C14.5447 4.92604 14.9849 4.87276 15.3282 4.6255L16.505 3.77776C16.7461 3.60367 17.0391 3.51939 17.332 3.53994C17.6249 3.56049 17.8986 3.68453 18.1043 3.88996L20.1053 5.89189C20.3107 6.09743 20.4349 6.3709 20.4557 6.66364C20.4764 6.95637 20.3925 7.24939 20.2188 7.49056L19.3724 8.66882C19.1247 9.01133 19.0717 9.45107 19.1828 9.85185C19.2078 9.94172 19.2311 10.0321 19.2526 10.1229C19.3486 10.5268 19.6055 10.879 19.9834 11.047L21.2849 11.6274C21.8341 11.8729 22.117 12.4821 21.9542 13.0699L21.1809 15.8455C21.1016 16.1304 20.9244 16.3803 20.6809 16.5506C20.4374 16.7209 20.1434 16.8007 19.8511 16.7758L18.4247 16.6541C18.0086 16.6186 17.6028 16.8013 17.3078 17.1069C17.2423 17.1754 17.1756 17.2426 17.1075 17.3086C16.8036 17.6018 16.6216 18.008 16.6566 18.4244L16.779 19.8485C16.8313 20.4526 16.4376 21.0158 15.8493 21.1799L13.075 21.9537C12.4868 22.1177 11.8752 21.8348 11.6306 21.2856L11.0523 19.9874C10.8836 19.6084 10.5309 19.3513 10.1254 19.2547C10.0349 19.2334 9.94491 19.2102 9.8554 19.1854C9.45417 19.074 9.01502 19.1269 8.67066 19.3745L7.49384 20.2222C7.25283 20.396 6.95996 20.4801 6.66732 20.4595C6.37468 20.4389 6.10122 20.3149 5.89558 20.1097L3.89354 18.1081C3.68811 17.9026 3.56395 17.6291 3.54317 17.3364C3.52238 17.0436 3.60632 16.7506 3.78004 16.5094L4.62754 15.3309C4.87416 14.9887 4.92717 14.5489 4.81598 14.1481C4.79105 14.0583 4.76778 13.9679 4.7462 13.8771C4.65025 13.4732 4.39338 13.121 4.0154 12.953L2.71503 12.3723C2.44901 12.2539 2.23579 12.0439 2.11324 11.7798C1.99068 11.5158 1.96674 11.2146 2.04565 10.9298L2.81795 8.15446C2.89722 7.86933 3.07452 7.61928 3.31826 7.44885C3.56199 7.27843 3.85633 7.19871 4.14883 7.22389L5.57415 7.34589C5.99129 7.38107 6.39706 7.19841 6.69102 6.89312C6.75598 6.82487 6.82336 6.75709 6.89129 6.69143C7.19629 6.39788 7.3783 5.99166 7.34226 5.57561L7.22061 4.15011Z" stroke="#001F3F" stroke-opacity="0.4" stroke-width="2" stroke-linecap="round" stroke-linejoin="round"/>
<path d="M14.8327 9.16741L15.5398 8.4603V8.4603L14.8327 9.16741ZM9.19634 9.167L9.89624 9.88132L9.90335 9.87421L9.19634 9.167ZM9.16741 14.8324L8.4603 15.5395H8.4603L9.16741 14.8324ZM14.8038 14.8328L14.1039 14.1185L14.0968 14.1256L14.8038 14.8328ZM15.0001 11.9858C15.0001 12.7777 14.6855 13.5371 14.1256 14.0971L15.5398 15.5113C16.4748 14.5763 17.0001 13.3081 17.0001 11.9858H15.0001ZM14.1256 9.87452C14.6855 10.4345 15.0001 11.1939 15.0001 11.9858H17.0001C17.0001 10.6635 16.4748 9.39532 15.5398 8.4603L14.1256 9.87452ZM12.0143 9C12.8062 9 13.5656 9.31457 14.1256 9.87452L15.5398 8.4603C14.6048 7.52529 13.3366 7 12.0143 7V9ZM9.90335 9.87421C10.4633 9.31446 11.2226 9 12.0143 9V7C10.6922 7 9.42431 7.52509 8.48934 8.45979L9.90335 9.87421ZM9.87452 9.90275C9.88171 9.89555 9.88894 9.8884 9.8962 9.88128L8.49649 8.45272C8.48437 8.46459 8.47231 8.47653 8.4603 8.48853L9.87452 9.90275ZM9 12.014C9 11.2221 9.31457 10.4627 9.87452 9.90275L8.4603 8.48853C7.52529 9.42355 7 10.6917 7 12.014H9ZM9.87452 14.1253C9.31457 13.5653 9 12.8059 9 12.014H7C7 13.3363 7.52529 14.6045 8.4603 15.5395L9.87452 14.1253ZM11.9858 14.9998C11.1939 14.9998 10.4345 14.6852 9.87452 14.1253L8.4603 15.5395C9.39532 16.4745 10.6635 16.9998 11.9858 16.9998V14.9998ZM14.0968 14.1256C13.5369 14.6853 12.7775 14.9998 11.9858 14.9998V16.9998C13.3079 16.9998 14.5758 16.4747 15.5108 15.54L14.0968 14.1256ZM14.1256 14.0971C14.1184 14.1043 14.1112 14.1114 14.1039 14.1185L15.5036 15.5471C15.5157 15.5352 15.5278 15.5233 15.5398 15.5113L14.1256 14.0971Z" fill="#001F3F" fill-opacity="0.4"/>
</svg>
