<svg width="18" height="18" viewBox="0 0 18 18" fill="none" xmlns="http://www.w3.org/2000/svg">
<g id="work_outline_black_24dp" clip-path="url(#clip0_791_5187)">
<path id="Vector" d="M10.5 4.5V3H7.5V4.5H10.5ZM3 6.75V13.5C3 13.9125 3.3375 14.25 3.75 14.25H14.25C14.6625 14.25 15 13.9125 15 13.5V6.75C15 6.3375 14.6625 6 14.25 6H3.75C3.3375 6 3 6.3375 3 6.75ZM15 4.5C15.8325 4.5 16.5 5.1675 16.5 6V14.25C16.5 15.0825 15.8325 15.75 15 15.75H3C2.1675 15.75 1.5 15.0825 1.5 14.25L1.5075 6C1.5075 5.1675 2.1675 4.5 3 4.5H6V3C6 2.1675 6.6675 1.5 7.5 1.5H10.5C11.3325 1.5 12 2.1675 12 3V4.5H15Z" fill="#316BD6"/>
</g>
<defs>
<clipPath id="clip0_791_5187">
<rect width="18" height="18" fill="white"/>
</clipPath>
</defs>
</svg>
