<svg width="1440" height="306" viewBox="0 0 1440 306" fill="none" xmlns="http://www.w3.org/2000/svg">
<g clip-path="url(#clip0_791_4975)">
<rect width="1439" height="306" transform="translate(0.5)" fill="url(#paint0_linear_791_4975)"/>
<circle cx="978.5" r="74" fill="#F7F7F7" fill-opacity="0.3"/>
<circle cx="1405.5" cy="93" r="68" stroke="#88B8E6" stroke-opacity="0.2" stroke-width="12"/>
<circle cx="159.5" cy="319" r="74" fill="#8BC34A" fill-opacity="0.2"/>
<path d="M343.739 95.3208L274.568 106.372C269.343 107.207 266.208 114.766 267.564 123.256L284.911 231.831C286.267 240.321 283.132 247.881 277.907 248.715L211.101 259.388C205.877 260.223 202.741 267.783 204.098 276.273L221.444 384.847C222.801 393.338 219.665 400.897 214.441 401.732L147.634 412.405C142.41 413.24 139.275 420.799 140.631 429.29L157.977 537.864C159.334 546.354 156.198 553.914 150.974 554.748L84.1679 565.422C78.9437 566.256 75.8082 573.816 77.1647 582.306L95.1249 694.724M321.48 -44L252.309 -32.949C247.085 -32.1143 243.95 -24.5548 245.306 -16.0644L262.652 92.5098C264.009 101 260.873 108.56 255.649 109.394L188.843 120.068C183.618 120.902 180.483 128.462 181.839 136.952L199.186 245.526C200.542 254.017 197.407 261.576 192.182 262.411L125.376 273.084C120.152 273.919 114.817 267.713 113.461 259.222L96.1144 150.648C94.758 142.157 97.8934 134.598 103.118 133.763L171.106 122.901L171.644 122.677C175.763 120.961 178.018 114.54 176.977 107.489L175.085 94.6755L159.581 -2.36862C158.225 -10.8591 152.89 -17.0653 147.666 -16.2307L80.8592 -5.55746C75.635 -4.72282 72.4996 2.83667 73.856 11.3271L91.3557 120.862L91.7891 124.536C92.5083 130.632 90.1649 135.833 86.4299 136.429L79.1738 137.589M86.5639 136.408L17.3926 147.459C12.1684 148.294 9.03297 155.853 10.3894 164.344L27.7356 272.918C29.0921 281.408 25.9567 288.968 20.7324 289.802L-46.0739 300.476C-51.2982 301.31 -54.4336 308.87 -53.0772 317.36L-35.7309 425.934C-34.3745 434.425 -37.5099 441.984 -42.7342 442.819L-109.541 453.492C-114.765 454.327 -117.9 461.886 -116.544 470.377L-99.1975 578.951C-97.8411 587.441 -100.977 595.001 -106.201 595.836L-173.007 606.509C-178.231 607.343 -181.367 614.903 -180.01 623.393L-162.05 735.811" stroke="white" stroke-opacity="0.4"/>
<path d="M1331.36 293.036C1331.12 293.17 1331.04 293.475 1331.17 293.716C1331.3 293.957 1331.61 294.044 1331.85 293.909L1331.36 293.036ZM1349.7 250.236L1350.07 249.898L1349.7 250.236ZM1350.18 235.396L1350.68 235.325L1350.18 235.396ZM1321.83 200.322C1321.58 200.437 1321.47 200.734 1321.59 200.985L1323.46 205.077C1323.57 205.328 1323.87 205.439 1324.12 205.324C1324.37 205.209 1324.48 204.912 1324.37 204.661L1322.7 201.024L1326.34 199.36C1326.59 199.245 1326.7 198.948 1326.59 198.697C1326.47 198.446 1326.18 198.335 1325.93 198.45L1321.83 200.322ZM1331.85 293.909C1338.85 290.006 1346.33 282.268 1350.62 273.914C1354.89 265.578 1356.06 256.428 1350.07 249.898L1349.33 250.574C1354.9 256.633 1353.93 265.249 1349.73 273.458C1345.53 281.649 1338.18 289.235 1331.36 293.036L1331.85 293.909ZM1350.07 249.898C1344.07 243.363 1337.83 243.065 1333.92 245.714C1330.04 248.338 1328.63 253.79 1332.24 258.215L1333.02 257.583C1329.81 253.65 1331.05 248.864 1334.48 246.542C1337.87 244.246 1343.57 244.296 1349.33 250.574L1350.07 249.898ZM1332.24 258.215C1334.02 260.392 1336.31 261.699 1338.7 261.991C1341.1 262.283 1343.56 261.55 1345.65 259.72C1349.83 256.072 1352.5 248.14 1350.68 235.325L1349.69 235.467C1351.49 248.15 1348.8 255.649 1345 258.967C1343.1 260.62 1340.92 261.254 1338.82 260.998C1336.71 260.742 1334.65 259.585 1333.02 257.583L1332.24 258.215ZM1350.68 235.325C1347.73 214.675 1330.48 203.383 1322.22 200.309L1321.87 201.246C1329.94 204.252 1346.82 215.321 1349.69 235.467L1350.68 235.325Z" fill="#316BD6" fill-opacity="0.5"/>
<g opacity="0.2">
<circle cx="74" cy="64.5" r="2.5" fill="#316BD6"/>
<circle cx="83" cy="64.5" r="2.5" fill="#316BD6"/>
<circle cx="92" cy="64.5" r="2.5" fill="#316BD6"/>
<circle cx="74" cy="73.5" r="2.5" fill="#316BD6"/>
<circle cx="83" cy="73.5" r="2.5" fill="#316BD6"/>
<circle cx="92" cy="73.5" r="2.5" fill="#316BD6"/>
<circle cx="74" cy="82.5" r="2.5" fill="#316BD6"/>
<circle cx="83" cy="82.5" r="2.5" fill="#316BD6"/>
<circle cx="92" cy="82.5" r="2.5" fill="#316BD6"/>
<circle cx="65" cy="73.5" r="2.5" fill="#316BD6"/>
<circle cx="74" cy="73.5" r="2.5" fill="#316BD6"/>
<circle cx="83" cy="73.5" r="2.5" fill="#316BD6"/>
<circle cx="65" cy="82.5" r="2.5" fill="#316BD6"/>
<circle cx="74" cy="82.5" r="2.5" fill="#316BD6"/>
<circle cx="83" cy="82.5" r="2.5" fill="#316BD6"/>
<circle cx="65" cy="91.5" r="2.5" fill="#316BD6"/>
<circle cx="74" cy="91.5" r="2.5" fill="#316BD6"/>
<circle cx="83" cy="91.5" r="2.5" fill="#316BD6"/>
</g>
</g>
<defs>
<linearGradient id="paint0_linear_791_4975" x1="8.04104e-06" y1="153" x2="835.287" y2="153" gradientUnits="userSpaceOnUse">
<stop stop-color="#E6E1E7"/>
<stop offset="1" stop-color="#E6E1E7"/>
</linearGradient>
<clipPath id="clip0_791_4975">
<rect width="1439" height="306" fill="white" transform="translate(0.5)"/>
</clipPath>
</defs>
</svg>
